<svg width="80" height="79" viewBox="0 0 80 79" fill="none" xmlns="http://www.w3.org/2000/svg">
<path d="M40.012 1.76701e-06C30.4893 -0.00282739 21.278 3.39173 14.0344 9.57329C6.79085 15.7548 1.99021 24.3178 0.495748 33.7225C-0.998715 43.1272 0.911049 52.7565 5.88163 60.879C10.8522 69.0014 18.5575 75.0841 27.612 78.0333H28.5453C29.3968 78.0748 30.2318 77.7886 30.8786 77.2333C31.2678 76.8944 31.5772 76.4736 31.7847 76.001C31.9921 75.5285 32.0925 75.0159 32.0786 74.5V73.8V70.1667C32.0518 69.9503 31.982 69.7415 31.8732 69.5526C31.7644 69.3637 31.6189 69.1985 31.4453 69.0667C31.2556 68.9148 31.035 68.8063 30.7989 68.7487C30.5628 68.6912 30.317 68.6859 30.0786 68.7333C21.112 70.6667 19.212 65.0667 19.112 64.7C17.9844 61.7325 15.9711 59.1839 13.3453 57.4L12.8453 57.0333C13.2389 56.8432 13.6765 56.7626 14.112 56.8C14.9427 56.9249 15.7278 57.26 16.3928 57.7733C17.0578 58.2866 17.5807 58.9613 17.912 59.7333C19.2015 61.9786 21.3116 63.6362 23.7983 64.3574C26.2851 65.0785 28.9546 64.807 31.2453 63.6C31.4928 63.49 31.7117 63.3246 31.8851 63.1165C32.0585 62.9085 32.1818 62.6633 32.2453 62.4C32.3804 60.8699 33.0398 59.4334 34.112 58.3333C34.3591 58.1202 34.5383 57.8391 34.6272 57.5251C34.7161 57.211 34.7108 56.8778 34.612 56.5667C34.521 56.2551 34.3392 55.9777 34.0898 55.7699C33.8405 55.5621 33.5348 55.4333 33.212 55.4C25.312 54.5 17.212 51.7333 17.212 38.1C17.1544 34.6717 18.4198 31.353 20.7453 28.8333C20.9555 28.6032 21.0954 28.3176 21.1486 28.0105C21.2017 27.7034 21.1659 27.3874 21.0453 27.1C20.1221 24.4998 20.1339 21.6591 21.0786 19.0667C24.1568 19.6167 27.0461 20.9353 29.4786 22.9C29.6811 23.0384 29.9126 23.1284 30.1553 23.1631C30.3981 23.1978 30.6456 23.1762 30.8786 23.1C33.8581 22.3054 36.9284 21.902 40.012 21.9C43.1076 21.8853 46.1911 22.289 49.1786 23.1C49.4062 23.1759 49.6484 23.1973 49.8858 23.1626C50.1231 23.1279 50.349 23.0379 50.5453 22.9C52.9748 20.9303 55.8654 19.6111 58.9453 19.0667C59.8609 21.6319 59.8609 24.4348 58.9453 27C58.8247 27.2898 58.7921 27.6086 58.8513 27.9168C58.9106 28.225 59.0592 28.509 59.2786 28.7333C61.5681 31.2329 62.8196 34.5106 62.7786 37.9C62.7786 51.5667 54.6786 54.3 46.7453 55.1667C46.4224 55.2 46.1168 55.3288 45.8675 55.5366C45.6181 55.7444 45.4363 56.0218 45.3453 56.3333C45.2492 56.6394 45.2454 56.967 45.3343 57.2753C45.4232 57.5835 45.6009 57.8588 45.8453 58.0667C46.5826 58.8364 47.1458 59.7556 47.4967 60.7621C47.8475 61.7686 47.9778 62.8387 47.8786 63.9V74.5C47.8712 75.0182 47.9778 75.5316 48.191 76.004C48.4041 76.4764 48.7185 76.8961 49.112 77.2333C49.6084 77.6117 50.1878 77.8664 50.8022 77.9766C51.4166 78.0867 52.0484 78.049 52.6453 77.8667C61.596 74.8208 69.1784 68.7028 74.0474 60.5981C78.9163 52.4934 80.757 42.926 79.2428 33.5932C77.7286 24.2605 72.9575 15.7658 65.7759 9.61625C58.5943 3.46667 49.4666 0.0597795 40.012 1.76701e-06Z" fill="black"/>
</svg>
