<svg width="70" height="70" viewBox="0 0 70 70" fill="none" xmlns="http://www.w3.org/2000/svg">
<path fill-rule="evenodd" clip-rule="evenodd" d="M14.88 0C10.9346 -2.90926e-07 7.15065 1.56693 4.36027 4.35623C1.56989 7.14554 0.00151514 10.9289 0 14.8743V54.5543C0 58.5007 1.56771 62.2855 4.35825 65.076C7.14879 67.8666 10.9336 69.4343 14.88 69.4343H54.56C58.5054 69.4328 62.2887 67.8644 65.078 65.074C67.8674 62.2836 69.4343 58.4997 69.4343 54.5543V14.8743C69.4328 10.9298 67.8652 7.14739 65.076 4.35825C62.2869 1.56911 58.5044 0.00151447 54.56 0H14.88ZM58.84 14.8971C58.84 16.0338 58.3885 17.1239 57.5847 17.9276C56.781 18.7313 55.6909 19.1829 54.5543 19.1829C53.4176 19.1829 52.3275 18.7313 51.5238 17.9276C50.7201 17.1239 50.2686 16.0338 50.2686 14.8971C50.2686 13.7605 50.7201 12.6704 51.5238 11.8667C52.3275 11.063 53.4176 10.6114 54.5543 10.6114C55.6909 10.6114 56.781 11.063 57.5847 11.8667C58.3885 12.6704 58.84 13.7605 58.84 14.8971ZM34.7257 22.8286C31.5734 22.8286 28.5502 24.0808 26.3212 26.3098C24.0922 28.5388 22.84 31.562 22.84 34.7143C22.84 37.8666 24.0922 40.8898 26.3212 43.1188C28.5502 45.3478 31.5734 46.6 34.7257 46.6C37.878 46.6 40.9012 45.3478 43.1302 43.1188C45.3592 40.8898 46.6114 37.8666 46.6114 34.7143C46.6114 31.562 45.3592 28.5388 43.1302 26.3098C40.9012 24.0808 37.878 22.8286 34.7257 22.8286ZM17.12 34.7143C17.12 32.403 17.5752 30.1144 18.4597 27.9791C19.3442 25.8437 20.6406 23.9035 22.2749 22.2692C23.9092 20.6349 25.8494 19.3385 27.9848 18.454C30.1201 17.5695 32.4087 17.1143 34.72 17.1143C37.0313 17.1143 39.3199 17.5695 41.4552 18.454C43.5906 19.3385 45.5308 20.6349 47.1651 22.2692C48.7994 23.9035 50.0958 25.8437 50.9803 27.9791C51.8648 30.1144 52.32 32.403 52.32 34.7143C52.32 39.3821 50.4657 43.8587 47.1651 47.1594C43.8644 50.46 39.3878 52.3143 34.72 52.3143C30.0522 52.3143 25.5756 50.46 22.2749 47.1594C18.9743 43.8587 17.12 39.3821 17.12 34.7143Z" fill="black"/>
</svg>
