<svg width="74" height="74" viewBox="0 0 74 74" fill="none" xmlns="http://www.w3.org/2000/svg">
<path fill-rule="evenodd" clip-rule="evenodd" d="M13.3333 0C9.79711 0 6.40573 1.40476 3.90524 3.90524C1.40476 6.40573 0 9.79711 0 13.3333V60C0 63.5362 1.40476 66.9276 3.90524 69.4281C6.40573 71.9286 9.79711 73.3333 13.3333 73.3333H60C63.5362 73.3333 66.9276 71.9286 69.4281 69.4281C71.9286 66.9276 73.3333 63.5362 73.3333 60V13.3333C73.3333 9.79711 71.9286 6.40573 69.4281 3.90524C66.9276 1.40476 63.5362 0 60 0H13.3333ZM17.35 23.0333C18.8573 23.0333 20.3029 22.4346 21.3687 21.3687C22.4346 20.3029 23.0333 18.8573 23.0333 17.35C23.0333 15.8427 22.4346 14.3971 21.3687 13.3313C20.3029 12.2654 18.8573 11.6667 17.35 11.6667C15.8427 11.6667 14.3971 12.2654 13.3313 13.3313C12.2654 14.3971 11.6667 15.8427 11.6667 17.35C11.6667 18.8573 12.2654 20.3029 13.3313 21.3687C14.3971 22.4346 15.8427 23.0333 17.35 23.0333ZM23.03 61.6667V27.5767H11.6667V61.6667H23.03ZM37.8033 27.5767H27.5767V61.6667H37.8033V41.1C39.12 38.96 41.3933 36.6667 44.62 36.6667C49.1667 36.6667 50.3033 41.2133 50.3033 43.4867V61.6667H61.6667V43.4867C61.6667 37.3933 59.01 27.5767 49.1667 27.5767C42.9067 27.5767 39.4333 29.86 37.8 32L37.8033 27.5767Z" fill="black"/>
</svg>
