<svg width="80" height="66" viewBox="0 0 80 66" fill="none" xmlns="http://www.w3.org/2000/svg">
<path fill-rule="evenodd" clip-rule="evenodd" d="M0 8.57143C0 6.29814 0.903059 4.11797 2.51051 2.51051C4.11797 0.903059 6.29814 0 8.57143 0H71.4286C73.7019 0 75.882 0.903059 77.4895 2.51051C79.0969 4.11797 80 6.29814 80 8.57143V10.5257L42.1886 35.7371C41.5285 36.1344 40.7702 36.3383 40 36.3257C39.2298 36.3383 38.4715 36.1344 37.8114 35.7371L0 10.5257V8.57143ZM0 19.1086V57.1429C0 59.4161 0.903059 61.5963 2.51051 63.2038C4.11797 64.8112 6.29814 65.7143 8.57143 65.7143H71.4286C73.7019 65.7143 75.882 64.8112 77.4895 63.2038C79.0969 61.5963 80 59.4161 80 57.1429V19.1086L46.1314 41.6914L46.1029 41.7143C44.2796 42.8738 42.1607 43.4829 40 43.4686C37.8571 43.4686 35.6971 42.8857 33.8971 41.7143L33.8686 41.6914L0 19.1086Z" fill="black"/>
</svg>
