<svg width="76" height="76" viewBox="0 0 76 76" fill="none" xmlns="http://www.w3.org/2000/svg">
<path fill-rule="evenodd" clip-rule="evenodd" d="M37.8461 1.27652e-05C58.4975 -0.0171301 75.7147 17.2343 75.7147 37.8457C75.7147 58.4743 58.4975 75.6743 37.8461 75.6629C32.4191 75.6657 27.0546 74.5044 22.1147 72.2572L3.37181 75.6457C2.87429 75.7368 2.36149 75.6942 1.88582 75.5223C1.41014 75.3503 0.988642 75.0552 0.66438 74.667C0.340117 74.2788 0.124716 73.8115 0.0401843 73.3128C-0.0443475 72.8141 0.00501997 72.302 0.183243 71.8286L5.55467 57.5543C1.93589 51.6148 0.0184929 44.7951 0.0118143 37.84C0.0175286 17.2286 17.2175 0.0114413 37.8461 1.27652e-05ZM56.8461 53.92C52.6347 57.3257 46.1147 60.7657 39.8804 56.7657C31.709 51.5143 24.4747 44.6172 19.229 36.44C16.149 31.6514 19.0461 23.9829 23.3775 19.3086C25.1032 17.44 27.949 17.7372 29.829 19.4514L33.7832 23.0629C34.9832 24.16 35.029 26.0686 34.2804 27.52C33.0975 29.7943 32.4004 32.8514 33.8632 35.1314C35.7032 37.9886 37.9661 40.8057 43.3718 42.4457C45.0061 42.9486 47.1032 42.7314 48.8861 42.0114C50.3775 41.4057 52.269 41.4114 53.3718 42.5886L57.0518 46.5029C59.0804 48.6629 59.149 52.0572 56.8461 53.92Z" fill="black"/>
</svg>
