<svg width="76" height="77" viewBox="0 0 76 77" fill="none" xmlns="http://www.w3.org/2000/svg">
<g filter="url(#filter0_i_13_729)">
<path fill-rule="evenodd" clip-rule="evenodd" d="M37.8461 1.00001C58.4975 0.98287 75.7147 18.2343 75.7147 38.8457C75.7147 59.4743 58.4975 76.6743 37.8461 76.6629C32.4191 76.6657 27.0546 75.5044 22.1147 73.2572L3.37181 76.6457C2.87429 76.7368 2.36149 76.6942 1.88582 76.5223C1.41014 76.3503 0.988642 76.0552 0.66438 75.667C0.340117 75.2788 0.124716 74.8115 0.0401843 74.3128C-0.0443475 73.8141 0.00501997 73.302 0.183243 72.8286L5.55467 58.5543C1.93589 52.6148 0.0184929 45.7951 0.0118143 38.84C0.0175286 18.2286 17.2175 1.01144 37.8461 1.00001ZM56.8461 54.92C52.6347 58.3257 46.1147 61.7657 39.8804 57.7657C31.709 52.5143 24.4747 45.6172 19.229 37.44C16.149 32.6514 19.0461 24.9829 23.3775 20.3086C25.1032 18.44 27.949 18.7372 29.829 20.4514L33.7832 24.0629C34.9832 25.16 35.029 27.0686 34.2804 28.52C33.0975 30.7943 32.4004 33.8514 33.8632 36.1314C35.7032 38.9886 37.9661 41.8057 43.3718 43.4457C45.0061 43.9486 47.1032 43.7314 48.8861 43.0114C50.3775 42.4057 52.269 42.4114 53.3718 43.5886L57.0518 47.5029C59.0804 49.6629 59.149 53.0572 56.8461 54.92Z" fill="#F9F9F9"/>
</g>
<defs>
<filter id="filter0_i_13_729" x="0" y="0.692383" width="75.7147" height="79.0001" filterUnits="userSpaceOnUse" color-interpolation-filters="sRGB">
<feFlood flood-opacity="0" result="BackgroundImageFix"/>
<feBlend mode="normal" in="SourceGraphic" in2="BackgroundImageFix" result="shape"/>
<feColorMatrix in="SourceAlpha" type="matrix" values="0 0 0 0 0 0 0 0 0 0 0 0 0 0 0 0 0 0 127 0" result="hardAlpha"/>
<feOffset dy="6"/>
<feGaussianBlur stdDeviation="1.5"/>
<feComposite in2="hardAlpha" operator="arithmetic" k2="-1" k3="1"/>
<feColorMatrix type="matrix" values="0 0 0 0 0 0 0 0 0 0 0 0 0 0 0 0 0 0 0.25 0"/>
<feBlend mode="normal" in2="shape" result="effect1_innerShadow_13_729"/>
</filter>
</defs>
</svg>
